<svg width="360" height="420" viewBox="0 0 360 420" fill="none" xmlns="http://www.w3.org/2000/svg">
  <defs>
    <linearGradient id="g1" x1="0" y1="0" x2="1" y2="1">
      <stop offset="0%" stop-color="#FFF1D8"/>
      <stop offset="100%" stop-color="#DDEBFF"/>
    </linearGradient>
    <linearGradient id="g2" x1="0" y1="0" x2="1" y2="1">
      <stop offset="0%" stop-color="#5B89FF"/>
      <stop offset="100%" stop-color="#294C9F"/>
    </linearGradient>
  </defs>
  <rect width="360" height="420" rx="28" fill="url(#g1)"/>
  <ellipse cx="182" cy="382" rx="102" ry="18" fill="#253962" fill-opacity="0.18"/>
  <circle cx="182" cy="152" r="58" fill="#FFDCC6"/>
  <path d="M116 148C116 96 150 68 182 68C214 68 248 96 248 148V162H116V148Z" fill="#213A78"/>
  <rect x="128" y="108" width="108" height="24" rx="12" fill="#8BB0FF"/>
  <ellipse cx="160" cy="158" rx="7" ry="8" fill="#2A3654"/>
  <ellipse cx="206" cy="158" rx="7" ry="8" fill="#2A3654"/>
  <path d="M164 186C170 194 194 194 200 186" stroke="#B15D46" stroke-width="4" stroke-linecap="round"/>
  <path d="M122 226H242L274 374H90L122 226Z" fill="url(#g2)"/>
  <path d="M164 226H200V374H164V226Z" fill="#EDF3FF"/>
  <path d="M88 264L54 332L84 346L118 276L88 264Z" fill="#FFDCC6"/>
  <path d="M276 264L310 332L280 346L246 276L276 264Z" fill="#FFDCC6"/>
  <circle cx="182" cy="302" r="26" fill="#FFD26E"/>
  <path d="M182 282L188 296H202L190 304L196 318L182 310L168 318L174 304L162 296H176L182 282Z" fill="white"/>
  <text x="182" y="404" text-anchor="middle" font-size="20" font-family="Arial, sans-serif" fill="#305189">Guide</text>
</svg>
