<svg width="360" height="420" viewBox="0 0 360 420" fill="none" xmlns="http://www.w3.org/2000/svg">
  <defs>
    <linearGradient id="b1" x1="0" y1="0" x2="1" y2="1">
      <stop offset="0%" stop-color="#FFF5E6"/>
      <stop offset="100%" stop-color="#DFF3FF"/>
    </linearGradient>
    <linearGradient id="b2" x1="0" y1="0" x2="1" y2="1">
      <stop offset="0%" stop-color="#57D3C1"/>
      <stop offset="100%" stop-color="#2B8F88"/>
    </linearGradient>
  </defs>
  <rect width="360" height="420" rx="28" fill="url(#b1)"/>
  <ellipse cx="180" cy="380" rx="96" ry="18" fill="#273B64" fill-opacity="0.18"/>
  <circle cx="180" cy="166" r="52" fill="#F7D9C6"/>
  <path d="M118 160C118 112 150 82 180 82C210 82 242 112 242 160V174H118V160Z" fill="#243E7D"/>
  <path d="M134 118L160 94L180 116L200 94L226 118" stroke="#95BAFF" stroke-width="10" stroke-linecap="round" stroke-linejoin="round"/>
  <ellipse cx="160" cy="170" rx="7" ry="8" fill="#2A3756"/>
  <ellipse cx="202" cy="170" rx="7" ry="8" fill="#2A3756"/>
  <path d="M164 194C172 202 192 202 198 194" stroke="#B15D47" stroke-width="4" stroke-linecap="round"/>
  <path d="M122 230H238L264 372H96L122 230Z" fill="url(#b2)"/>
  <path d="M156 230H204V372H156V230Z" fill="#EEF6FF"/>
  <path d="M98 274L70 330L96 344L124 286L98 274Z" fill="#F7D9C6"/>
  <path d="M262 274L290 330L264 344L236 286L262 274Z" fill="#F7D9C6"/>
  <circle cx="180" cy="302" r="24" fill="#6FE4D2"/>
  <text x="180" y="404" text-anchor="middle" font-size="20" font-family="Arial, sans-serif" fill="#305189">Buddy</text>
</svg>
