<svg width="1440" height="720" viewBox="0 0 1440 720" fill="none" xmlns="http://www.w3.org/2000/svg">
  <defs>
    <linearGradient id="night" x1="720" y1="0" x2="720" y2="720" gradientUnits="userSpaceOnUse">
      <stop offset="0%" stop-color="#151F55"/>
      <stop offset="54%" stop-color="#2B377B"/>
      <stop offset="100%" stop-color="#44295A"/>
    </linearGradient>
  </defs>
  <rect width="1440" height="720" fill="url(#night)"/>
  <circle cx="1140" cy="126" r="52" fill="#FFF0B0"/>
  <circle cx="1140" cy="126" r="36" fill="#151F55"/>
  <g fill="#C6D5FF" fill-opacity="0.82">
    <circle cx="120" cy="90" r="3"/>
    <circle cx="222" cy="128" r="2"/>
    <circle cx="312" cy="74" r="2"/>
    <circle cx="408" cy="138" r="3"/>
    <circle cx="556" cy="104" r="2"/>
    <circle cx="650" cy="84" r="3"/>
    <circle cx="780" cy="138" r="2"/>
    <circle cx="918" cy="92" r="2"/>
    <circle cx="1260" cy="92" r="2"/>
    <circle cx="1320" cy="148" r="3"/>
  </g>
  <path d="M0 392C178 356 332 398 516 370C692 344 880 262 1062 278C1212 288 1330 348 1440 332V720H0V392Z" fill="#1A2E63"/>
  <path d="M0 446H1440V720H0V446Z" fill="#112245"/>
  <g>
    <rect x="96" y="364" width="184" height="158" rx="12" fill="#244A89"/>
    <path d="M74 364L188 292L304 364H74Z" fill="#2F66B0"/>
    <rect x="132" y="406" width="36" height="28" fill="#FFD787"/>
    <rect x="178" y="406" width="36" height="28" fill="#FFD787"/>
    <rect x="224" y="406" width="32" height="28" fill="#FFD787"/>
    <rect x="178" y="448" width="44" height="74" fill="#182E57"/>
  </g>
  <g>
    <rect x="336" y="330" width="224" height="194" rx="12" fill="#2C518F"/>
    <path d="M310 330L448 244L586 330H310Z" fill="#3D7BFF"/>
    <rect x="382" y="372" width="38" height="30" fill="#FFD787"/>
    <rect x="430" y="372" width="38" height="30" fill="#FFD787"/>
    <rect x="478" y="372" width="38" height="30" fill="#FFD787"/>
    <rect x="406" y="416" width="38" height="30" fill="#FFD787"/>
    <rect x="454" y="416" width="38" height="30" fill="#FFD787"/>
    <rect x="474" y="458" width="54" height="66" fill="#173159"/>
  </g>
  <g>
    <rect x="618" y="304" width="262" height="224" rx="12" fill="#264987"/>
    <path d="M590 304L748 212L906 304H590Z" fill="#FF8C63"/>
    <rect x="668" y="350" width="40" height="32" fill="#FFD787"/>
    <rect x="718" y="350" width="40" height="32" fill="#FFD787"/>
    <rect x="768" y="350" width="40" height="32" fill="#FFD787"/>
    <rect x="668" y="396" width="40" height="32" fill="#FFD787"/>
    <rect x="718" y="396" width="40" height="32" fill="#FFD787"/>
    <rect x="768" y="396" width="40" height="32" fill="#FFD787"/>
    <rect x="782" y="452" width="58" height="76" fill="#153059"/>
  </g>
  <g>
    <rect x="942" y="344" width="212" height="180" rx="12" fill="#2C4E8A"/>
    <path d="M918 344L1048 266L1180 344H918Z" fill="#4A83FF"/>
    <rect x="986" y="386" width="36" height="30" fill="#FFD787"/>
    <rect x="1032" y="386" width="36" height="30" fill="#FFD787"/>
    <rect x="1078" y="386" width="36" height="30" fill="#FFD787"/>
    <rect x="1060" y="430" width="50" height="94" fill="#183159"/>
  </g>
  <g>
    <rect x="1190" y="378" width="156" height="142" rx="12" fill="#21427B"/>
    <path d="M1172 378L1268 320L1362 378H1172Z" fill="#FF9A67"/>
    <rect x="1226" y="418" width="34" height="28" fill="#FFD787"/>
    <rect x="1270" y="418" width="34" height="28" fill="#FFD787"/>
    <rect x="1296" y="456" width="34" height="64" fill="#173059"/>
  </g>
</svg>
