<svg width="1400" height="600" viewBox="0 0 1400 600" fill="none" xmlns="http://www.w3.org/2000/svg">
  <defs>
    <linearGradient id="sky" x1="700" y1="0" x2="700" y2="600" gradientUnits="userSpaceOnUse">
      <stop offset="0%" stop-color="#66A8FF"/>
      <stop offset="42%" stop-color="#8BD2FF"/>
      <stop offset="100%" stop-color="#FFD59A"/>
    </linearGradient>
    <linearGradient id="cliff" x1="700" y1="126" x2="700" y2="390" gradientUnits="userSpaceOnUse">
      <stop offset="0%" stop-color="#B88A5A"/>
      <stop offset="100%" stop-color="#7D573A"/>
    </linearGradient>
    <linearGradient id="roofA" x1="0" y1="0" x2="1" y2="1">
      <stop offset="0%" stop-color="#D76A46"/>
      <stop offset="100%" stop-color="#A2432D"/>
    </linearGradient>
    <linearGradient id="roofB" x1="0" y1="0" x2="1" y2="1">
      <stop offset="0%" stop-color="#4C8FD8"/>
      <stop offset="100%" stop-color="#2E5CA8"/>
    </linearGradient>
  </defs>

  <rect width="1400" height="600" fill="url(#sky)"/>
  <ellipse cx="1020" cy="112" rx="70" ry="70" fill="#FFF5D8" fill-opacity="0.85"/>
  <ellipse cx="240" cy="124" rx="122" ry="28" fill="#FFFFFF" fill-opacity="0.42"/>
  <ellipse cx="360" cy="148" rx="152" ry="36" fill="#FFFFFF" fill-opacity="0.36"/>
  <ellipse cx="1120" cy="180" rx="170" ry="42" fill="#FFFFFF" fill-opacity="0.3"/>

  <path d="M0 286C160 234 340 256 504 238C668 220 842 152 1010 172C1164 190 1274 248 1400 228V420H0V286Z" fill="url(#cliff)"/>
  <path d="M100 318C220 298 288 284 384 300C492 318 552 332 664 316C760 300 860 248 960 260C1066 272 1168 330 1302 312V390H100V318Z" fill="#946A47" fill-opacity="0.82"/>

  <g fill="#6A4B34" fill-opacity="0.66">
    <circle cx="540" cy="260" r="48"/>
    <circle cx="650" cy="244" r="54"/>
    <circle cx="768" cy="252" r="52"/>
    <circle cx="888" cy="238" r="56"/>
  </g>
  <g fill="#C8AA84" fill-opacity="0.88">
    <path d="M510 242C522 220 554 216 570 238C580 250 574 270 560 278C546 286 522 282 512 266C508 260 506 250 510 242Z"/>
    <path d="M624 222C640 202 674 200 692 220C706 236 704 264 684 276C664 290 634 286 620 264C610 248 612 236 624 222Z"/>
    <path d="M742 232C758 212 792 210 810 230C824 246 822 270 806 282C788 296 760 294 746 274C736 260 734 246 742 232Z"/>
    <path d="M858 218C876 196 912 196 930 220C944 238 944 264 924 278C904 292 874 288 860 264C850 248 848 234 858 218Z"/>
  </g>

  <rect y="388" width="1400" height="212" fill="#567A43"/>
  <path d="M0 420C178 386 372 430 538 404C706 378 854 420 1018 394C1188 368 1298 396 1400 380V600H0V420Z" fill="#6D8F52"/>

  <g>
    <rect x="150" y="372" width="154" height="116" rx="8" fill="#E8EAD8"/>
    <path d="M138 372L228 326L320 372H138Z" fill="url(#roofA)"/>
    <rect x="204" y="416" width="44" height="72" fill="#825A40"/>
  </g>
  <g>
    <rect x="324" y="354" width="174" height="138" rx="8" fill="#DBE1D5"/>
    <path d="M308 354L412 300L512 354H308Z" fill="url(#roofB)"/>
    <rect x="362" y="402" width="34" height="28" fill="#88AACD"/>
    <rect x="410" y="402" width="34" height="28" fill="#88AACD"/>
    <rect x="432" y="426" width="44" height="66" fill="#76533B"/>
  </g>
  <g>
    <rect x="530" y="370" width="198" height="132" rx="8" fill="#E7E7D9"/>
    <path d="M516 370L626 316L738 370H516Z" fill="url(#roofA)"/>
    <rect x="574" y="414" width="34" height="28" fill="#8AAAD2"/>
    <rect x="620" y="414" width="34" height="28" fill="#8AAAD2"/>
    <rect x="664" y="430" width="46" height="72" fill="#6C4B34"/>
  </g>
  <g>
    <rect x="760" y="350" width="216" height="150" rx="8" fill="#DFE5DC"/>
    <path d="M746 350L868 286L990 350H746Z" fill="url(#roofB)"/>
    <rect x="810" y="400" width="34" height="30" fill="#8EAED6"/>
    <rect x="854" y="400" width="34" height="30" fill="#8EAED6"/>
    <rect x="900" y="400" width="34" height="30" fill="#8EAED6"/>
    <rect x="906" y="430" width="50" height="70" fill="#6A4932"/>
  </g>
  <g>
    <rect x="1020" y="366" width="170" height="124" rx="8" fill="#E8E5D8"/>
    <path d="M1006 366L1108 314L1208 366H1006Z" fill="url(#roofA)"/>
    <rect x="1064" y="408" width="34" height="28" fill="#88A9CD"/>
    <rect x="1110" y="408" width="34" height="28" fill="#88A9CD"/>
    <rect x="1130" y="432" width="42" height="58" fill="#734F36"/>
  </g>
</svg>
