<svg width="1400" height="600" viewBox="0 0 1400 600" fill="none" xmlns="http://www.w3.org/2000/svg">
  <defs>
    <linearGradient id="mistSky" x1="700" y1="0" x2="700" y2="600" gradientUnits="userSpaceOnUse">
      <stop offset="0%" stop-color="#6E8DAA"/>
      <stop offset="56%" stop-color="#97B4B4"/>
      <stop offset="100%" stop-color="#C8C4A4"/>
    </linearGradient>
    <linearGradient id="rockDark" x1="0" y1="0" x2="1" y2="1">
      <stop offset="0%" stop-color="#23342F"/>
      <stop offset="100%" stop-color="#132019"/>
    </linearGradient>
    <linearGradient id="rockLight" x1="0" y1="0" x2="1" y2="1">
      <stop offset="0%" stop-color="#51735F"/>
      <stop offset="100%" stop-color="#2B4539"/>
    </linearGradient>
    <radialGradient id="lakeGlow" cx="0" cy="0" r="1" gradientUnits="userSpaceOnUse" gradientTransform="translate(700 460) rotate(90) scale(150 600)">
      <stop offset="0%" stop-color="#9BC7B0" stop-opacity="0.8"/>
      <stop offset="100%" stop-color="#3B5D4D" stop-opacity="0.95"/>
    </radialGradient>
  </defs>

  <rect width="1400" height="600" fill="url(#mistSky)"/>
  <ellipse cx="700" cy="126" rx="180" ry="54" fill="#FFFFFF" fill-opacity="0.22"/>
  <ellipse cx="564" cy="170" rx="220" ry="62" fill="#FFFFFF" fill-opacity="0.16"/>
  <ellipse cx="848" cy="188" rx="220" ry="62" fill="#FFFFFF" fill-opacity="0.16"/>

  <path d="M0 600V196L246 132L338 600H0Z" fill="url(#rockDark)"/>
  <path d="M1400 600V188L1176 122L1036 600H1400Z" fill="url(#rockDark)"/>
  <path d="M0 600V232L206 162L340 600H0Z" fill="url(#rockLight)" fill-opacity="0.8"/>
  <path d="M1400 600V232L1194 162L1052 600H1400Z" fill="url(#rockLight)" fill-opacity="0.8"/>

  <g opacity="0.92">
    <rect x="318" y="118" width="130" height="230" rx="56" fill="#6C746E"/>
    <rect x="358" y="172" width="24" height="152" rx="12" fill="#4E5C58"/>
    <rect x="384" y="172" width="24" height="152" rx="12" fill="#4E5C58"/>
    <path d="M292 198C338 172 430 172 476 198V222C428 196 340 196 292 222V198Z" fill="#77867B"/>
    <circle cx="382" cy="160" r="50" fill="#7D847F"/>
    <path d="M350 158C352 138 414 138 416 158C418 180 404 196 382 196C360 196 346 180 350 158Z" fill="#5B6762"/>
    <rect x="372" y="348" width="20" height="156" fill="#5C6A65"/>
  </g>
  <g opacity="0.92">
    <rect x="952" y="118" width="130" height="230" rx="56" fill="#6C746E"/>
    <rect x="992" y="172" width="24" height="152" rx="12" fill="#4E5C58"/>
    <rect x="1018" y="172" width="24" height="152" rx="12" fill="#4E5C58"/>
    <path d="M926 198C972 172 1064 172 1110 198V222C1062 196 974 196 926 222V198Z" fill="#77867B"/>
    <circle cx="1016" cy="160" r="50" fill="#7D847F"/>
    <path d="M984 158C986 138 1048 138 1050 158C1052 180 1038 196 1016 196C994 196 980 180 984 158Z" fill="#5B6762"/>
    <rect x="1006" y="348" width="20" height="156" fill="#5C6A65"/>
  </g>

  <path d="M280 600L450 246L544 600H280Z" fill="#26372F" fill-opacity="0.92"/>
  <path d="M1120 600L958 246L858 600H1120Z" fill="#26372F" fill-opacity="0.92"/>
  <rect x="0" y="402" width="1400" height="198" fill="url(#lakeGlow)"/>
  <ellipse cx="700" cy="470" rx="320" ry="70" fill="#B3D8C0" fill-opacity="0.2"/>
  <path d="M0 444C188 424 368 454 558 432C742 410 934 454 1124 430C1232 418 1308 426 1400 410V600H0V444Z" fill="#2E4D41" fill-opacity="0.62"/>
</svg>
