<svg width="360" height="420" viewBox="0 0 360 420" fill="none" xmlns="http://www.w3.org/2000/svg">
  <defs>
    <linearGradient id="bgHero" x1="0" y1="0" x2="1" y2="1">
      <stop offset="0%" stop-color="#FFEFCF"/>
      <stop offset="100%" stop-color="#D7E6FF"/>
    </linearGradient>
    <linearGradient id="hairHero" x1="0" y1="0" x2="1" y2="1">
      <stop offset="0%" stop-color="#243A7A"/>
      <stop offset="100%" stop-color="#1A224A"/>
    </linearGradient>
    <linearGradient id="jacketHero" x1="0" y1="0" x2="1" y2="1">
      <stop offset="0%" stop-color="#FF9C3F"/>
      <stop offset="100%" stop-color="#E66F1A"/>
    </linearGradient>
  </defs>
  <rect x="0" y="0" width="360" height="420" rx="30" fill="url(#bgHero)"/>
  <ellipse cx="180" cy="378" rx="100" ry="18" fill="#2F3E6A" opacity="0.2"/>
  <path d="M112 166C112 121 143 92 180 92C217 92 248 121 248 166V224H112V166Z" fill="#FFD9B8"/>
  <path d="M103 152C103 100 139 72 180 72C221 72 257 100 257 152V165H103V152Z" fill="url(#hairHero)"/>
  <path d="M126 108H234V132H126V108Z" fill="#8BA3DE"/>
  <rect x="137" y="114" width="86" height="12" rx="6" fill="#D5E0FF"/>
  <circle cx="180" cy="170" r="52" fill="#FFDFC6"/>
  <ellipse cx="159" cy="170" rx="6" ry="8" fill="#2F3A58"/>
  <ellipse cx="201" cy="170" rx="6" ry="8" fill="#2F3A58"/>
  <path d="M162 194C168 202 192 202 198 194" stroke="#B45F41" stroke-width="4" stroke-linecap="round"/>
  <path d="M128 228H232L260 374H100L128 228Z" fill="url(#jacketHero)"/>
  <path d="M154 228H206V374H154V228Z" fill="#232A4D"/>
  <path d="M180 244L194 268H166L180 244Z" fill="#F1F6FF"/>
  <path d="M100 274L72 332L98 344L126 286L100 274Z" fill="#FFDFC6"/>
  <path d="M260 274L288 332L262 344L234 286L260 274Z" fill="#FFDFC6"/>
  <rect x="152" y="300" width="56" height="18" rx="9" fill="#8AA0DB"/>
  <rect x="90" y="340" width="34" height="16" rx="8" fill="#2D3D6A"/>
  <rect x="236" y="340" width="34" height="16" rx="8" fill="#2D3D6A"/>
  <text x="180" y="404" text-anchor="middle" font-size="20" font-family="Arial, sans-serif" fill="#324576">Hero Ninja</text>
</svg>
