<svg width="360" height="420" viewBox="0 0 360 420" fill="none" xmlns="http://www.w3.org/2000/svg">
  <defs>
    <linearGradient id="bgRival" x1="0" y1="0" x2="1" y2="1">
      <stop offset="0%" stop-color="#FFE9ED"/>
      <stop offset="100%" stop-color="#E4E8FF"/>
    </linearGradient>
    <linearGradient id="hairRival" x1="0" y1="0" x2="1" y2="1">
      <stop offset="0%" stop-color="#1D254C"/>
      <stop offset="100%" stop-color="#0E142C"/>
    </linearGradient>
    <linearGradient id="coatRival" x1="0" y1="0" x2="1" y2="1">
      <stop offset="0%" stop-color="#6D77F7"/>
      <stop offset="100%" stop-color="#363B8C"/>
    </linearGradient>
  </defs>
  <rect x="0" y="0" width="360" height="420" rx="30" fill="url(#bgRival)"/>
  <ellipse cx="180" cy="380" rx="105" ry="17" fill="#2A3668" opacity="0.2"/>
  <circle cx="180" cy="162" r="56" fill="#F5D6C2"/>
  <path d="M108 156C108 102 141 72 180 72C219 72 252 102 252 156V170H108V156Z" fill="url(#hairRival)"/>
  <path d="M122 124C143 108 160 101 180 101C200 101 217 108 238 124" stroke="#6B79D4" stroke-width="8" stroke-linecap="round"/>
  <ellipse cx="160" cy="168" rx="6" ry="8" fill="#1F2744"/>
  <ellipse cx="200" cy="168" rx="6" ry="8" fill="#1F2744"/>
  <path d="M160 193C170 198 190 198 200 193" stroke="#9C4F4C" stroke-width="4" stroke-linecap="round"/>
  <path d="M118 228H242L276 374H84L118 228Z" fill="url(#coatRival)"/>
  <path d="M156 228H204V374H156V228Z" fill="#202744"/>
  <path d="M88 268L56 332L86 346L118 280L88 268Z" fill="#F5D6C2"/>
  <path d="M272 268L304 332L274 346L242 280L272 268Z" fill="#F5D6C2"/>
  <rect x="146" y="298" width="68" height="18" rx="9" fill="#9AA7FF"/>
  <path d="M148 340L212 340L202 366H158L148 340Z" fill="#151D3D"/>
  <text x="180" y="404" text-anchor="middle" font-size="20" font-family="Arial, sans-serif" fill="#384385">Rival</text>
</svg>
