<svg width="1600" height="900" viewBox="0 0 1600 900" fill="none" xmlns="http://www.w3.org/2000/svg">
  <defs>
    <linearGradient id="bg" x1="94" y1="58" x2="1504" y2="850" gradientUnits="userSpaceOnUse">
      <stop stop-color="#07111B"/>
      <stop offset="0.48" stop-color="#091827"/>
      <stop offset="1" stop-color="#0C1D2E"/>
    </linearGradient>
    <radialGradient id="glowA" cx="0" cy="0" r="1" gradientUnits="userSpaceOnUse" gradientTransform="translate(246 154) rotate(28) scale(472 268)">
      <stop stop-color="#72EEFF" stop-opacity="0.22"/>
      <stop offset="1" stop-color="#72EEFF" stop-opacity="0"/>
    </radialGradient>
    <radialGradient id="glowB" cx="0" cy="0" r="1" gradientUnits="userSpaceOnUse" gradientTransform="translate(1270 746) rotate(143) scale(356 222)">
      <stop stop-color="#7D8FFF" stop-opacity="0.18"/>
      <stop offset="1" stop-color="#7D8FFF" stop-opacity="0"/>
    </radialGradient>
    <linearGradient id="panelStroke" x1="960" y1="224" x2="1404" y2="650" gradientUnits="userSpaceOnUse">
      <stop stop-color="#2D6C89"/>
      <stop offset="1" stop-color="#233E59"/>
    </linearGradient>
    <linearGradient id="panelFill" x1="1000" y1="236" x2="1424" y2="644" gradientUnits="userSpaceOnUse">
      <stop stop-color="#102233" stop-opacity="0.95"/>
      <stop offset="1" stop-color="#0B1724" stop-opacity="0.92"/>
    </linearGradient>
    <linearGradient id="textFill" x1="0%" y1="0%" x2="100%" y2="0%">
      <stop offset="0%" stop-color="#ECFDFF"/>
      <stop offset="0.3" stop-color="#BDFBFF"/>
      <stop offset="0.7" stop-color="#70E9FF"/>
      <stop offset="1" stop-color="#8C9CFF"/>
    </linearGradient>
    <linearGradient id="chipStroke" x1="0" y1="0" x2="1" y2="1">
      <stop stop-color="#3B7FA0"/>
      <stop offset="1" stop-color="#29516B"/>
    </linearGradient>
    <filter id="softGlow" x="-80%" y="-80%" width="260%" height="260%">
      <feDropShadow dx="0" dy="0" stdDeviation="8" flood-color="#73F2FF" flood-opacity="0.42"/>
      <feDropShadow dx="0" dy="0" stdDeviation="18" flood-color="#6887FF" flood-opacity="0.16"/>
    </filter>
  </defs>

  <rect width="1600" height="900" rx="42" fill="url(#bg)"/>
  <ellipse cx="246" cy="154" rx="292" ry="182" fill="url(#glowA)"/>
  <ellipse cx="1270" cy="746" rx="256" ry="168" fill="url(#glowB)"/>

  <g opacity="0.12">
    <path d="M78 132H712" stroke="#74EFFF"/>
    <path d="M78 186H712" stroke="#74EFFF"/>
    <path d="M78 240H712" stroke="#74EFFF"/>
    <path d="M78 294H712" stroke="#74EFFF"/>
    <path d="M78 348H712" stroke="#74EFFF"/>
    <path d="M78 402H712" stroke="#74EFFF"/>
    <path d="M78 456H712" stroke="#74EFFF"/>
    <path d="M78 510H712" stroke="#74EFFF"/>
    <path d="M78 564H712" stroke="#74EFFF"/>
    <path d="M78 618H712" stroke="#74EFFF"/>
    <path d="M78 672H712" stroke="#74EFFF"/>
  </g>

  <g transform="translate(88 86)">
    <image href="brand-lockup.svg" width="650" height="156"/>
  </g>

  <text x="96" y="306" fill="#F1FCFF" font-family="Segoe UI, Arial, sans-serif" font-size="78" font-weight="800">Repo Intelligence</text>
  <text x="96" y="392" fill="#F1FCFF" font-family="Segoe UI, Arial, sans-serif" font-size="78" font-weight="800">Workspace</text>
  <text x="96" y="462" fill="#AFC6D7" font-family="Segoe UI, Arial, sans-serif" font-size="31" font-weight="500">Architecture analysis, compare mode, Mermaid maps, platform signals, and codebase chat.</text>

  <g>
    <rect x="96" y="536" width="214" height="58" rx="29" fill="#102233" stroke="url(#chipStroke)"/>
    <text x="142" y="573" fill="#F5FBFF" font-family="Segoe UI, Arial, sans-serif" font-size="25" font-weight="700">Repo intake</text>

    <rect x="328" y="536" width="222" height="58" rx="29" fill="#102233" stroke="url(#chipStroke)"/>
    <text x="375" y="573" fill="#F5FBFF" font-family="Segoe UI, Arial, sans-serif" font-size="25" font-weight="700">Compare mode</text>

    <rect x="568" y="536" width="176" height="58" rx="29" fill="#102233" stroke="url(#chipStroke)"/>
    <text x="621" y="573" fill="#F5FBFF" font-family="Segoe UI, Arial, sans-serif" font-size="25" font-weight="700">AI brief</text>

    <rect x="96" y="622" width="206" height="58" rx="29" fill="#102233" stroke="url(#chipStroke)"/>
    <text x="136" y="659" fill="#F5FBFF" font-family="Segoe UI, Arial, sans-serif" font-size="25" font-weight="700">Mermaid maps</text>

    <rect x="320" y="622" width="170" height="58" rx="29" fill="#102233" stroke="url(#chipStroke)"/>
    <text x="366" y="659" fill="#F5FBFF" font-family="Segoe UI, Arial, sans-serif" font-size="25" font-weight="700">Chat layer</text>

    <rect x="508" y="622" width="214" height="58" rx="29" fill="#102233" stroke="url(#chipStroke)"/>
    <text x="556" y="659" fill="#F5FBFF" font-family="Segoe UI, Arial, sans-serif" font-size="25" font-weight="700">Platform radar</text>
  </g>

  <text x="96" y="792" fill="#92B5C8" font-family="Segoe UI, Arial, sans-serif" font-size="24" font-weight="600">github.com/agarwalujala3-lang/LumenStack-AI</text>
  <text x="96" y="836" fill="#BED7E6" font-family="Segoe UI, Arial, sans-serif" font-size="22" font-weight="500">Built with Node.js, Express, JavaScript, OpenAI, and Mermaid</text>

  <g filter="url(#softGlow)">
    <rect x="948" y="224" width="508" height="420" rx="34" fill="url(#panelFill)" stroke="url(#panelStroke)"/>

    <rect x="992" y="266" width="420" height="62" rx="18" fill="#0D2031" stroke="#295872"/>
    <circle cx="1028" cy="297" r="8.5" fill="#73F2FF"/>
    <text x="1052" y="307" fill="#E4F8FF" font-family="Consolas, monospace" font-size="22" font-weight="700">Architecture signal pass</text>

    <rect x="1000" y="382" width="156" height="84" rx="20" fill="#11283B" stroke="#2C5A76"/>
    <text x="1036" y="415" fill="#91EDFF" font-family="Segoe UI, Arial, sans-serif" font-size="17" font-weight="700">INPUT</text>
    <text x="1024" y="442" fill="#F5FBFF" font-family="Segoe UI, Arial, sans-serif" font-size="25" font-weight="700">Repository</text>

    <rect x="1256" y="382" width="176" height="84" rx="20" fill="#11283B" stroke="#2C5A76"/>
    <text x="1291" y="415" fill="#91EDFF" font-family="Segoe UI, Arial, sans-serif" font-size="17" font-weight="700">PROCESS</text>
    <text x="1274" y="442" fill="#F5FBFF" font-family="Segoe UI, Arial, sans-serif" font-size="25" font-weight="700">Graph pass</text>

    <rect x="1100" y="524" width="198" height="96" rx="24" fill="#10283C" stroke="#2C5A76"/>
    <text x="1152" y="559" fill="#91EDFF" font-family="Segoe UI, Arial, sans-serif" font-size="17" font-weight="700">OUTPUT</text>
    <text x="1133" y="588" fill="#F5FBFF" font-family="Segoe UI, Arial, sans-serif" font-size="28" font-weight="700">Review brief</text>

    <path d="M1156 424H1244" stroke="url(#textFill)" stroke-width="7" stroke-linecap="round"/>
    <path d="M1344 466V514" stroke="url(#textFill)" stroke-width="7" stroke-linecap="round"/>
    <path d="M1298 572H1320" stroke="url(#textFill)" stroke-width="7" stroke-linecap="round"/>
    <circle cx="1244" cy="424" r="9" fill="#73F2FF"/>
    <circle cx="1344" cy="518" r="9" fill="#7D8FFF"/>
    <circle cx="1320" cy="572" r="9" fill="#73F2FF"/>
  </g>
</svg>
