<svg width="1600" height="900" viewBox="0 0 1600 900" fill="none" xmlns="http://www.w3.org/2000/svg">
  <defs>
    <linearGradient id="thumbBg" x1="132" y1="86" x2="1458" y2="850" gradientUnits="userSpaceOnUse">
      <stop stop-color="#040A13"/>
      <stop offset="0.52" stop-color="#081726"/>
      <stop offset="1" stop-color="#0A1C2D"/>
    </linearGradient>
    <radialGradient id="thumbGlowA" cx="0" cy="0" r="1" gradientUnits="userSpaceOnUse" gradientTransform="translate(272 182) rotate(31.6) scale(476 342)">
      <stop stop-color="#56E7FF" stop-opacity="0.24"/>
      <stop offset="1" stop-color="#56E7FF" stop-opacity="0"/>
    </radialGradient>
    <radialGradient id="thumbGlowB" cx="0" cy="0" r="1" gradientUnits="userSpaceOnUse" gradientTransform="translate(1290 712) rotate(144.7) scale(428 266)">
      <stop stop-color="#6C9EFF" stop-opacity="0.2"/>
      <stop offset="1" stop-color="#6C9EFF" stop-opacity="0"/>
    </radialGradient>
    <linearGradient id="thumbCard" x1="870" y1="154" x2="1430" y2="760" gradientUnits="userSpaceOnUse">
      <stop stop-color="#101E2D" stop-opacity="0.92"/>
      <stop offset="1" stop-color="#08131E" stop-opacity="0.88"/>
    </linearGradient>
    <linearGradient id="thumbAccent" x1="1036" y1="310" x2="1260" y2="520" gradientUnits="userSpaceOnUse">
      <stop stop-color="#57E3FF"/>
      <stop offset="1" stop-color="#7AB8FF"/>
    </linearGradient>
    <linearGradient id="thumbTextAccent" x1="0%" y1="0%" x2="100%" y2="0%">
      <stop offset="0%" stop-color="#B9F6FF"/>
      <stop offset="45%" stop-color="#7CEEFF"/>
      <stop offset="100%" stop-color="#5DD8FF"/>
    </linearGradient>
    <radialGradient id="thumbCoreGlow" cx="50%" cy="50%" r="50%">
      <stop offset="0%" stop-color="#E8FFFF"/>
      <stop offset="48%" stop-color="#7EF9FF"/>
      <stop offset="100%" stop-color="#2BC4D8"/>
    </radialGradient>
    <linearGradient id="thumbLoopGlow" x1="0%" y1="0%" x2="100%" y2="100%">
      <stop offset="0%" stop-color="#6BFFF7"/>
      <stop offset="55%" stop-color="#45DEE7"/>
      <stop offset="100%" stop-color="#1AA7C2"/>
    </linearGradient>
    <filter id="thumbBlur" x="-200" y="-200" width="2000" height="1300" filterUnits="userSpaceOnUse" color-interpolation-filters="sRGB">
      <feGaussianBlur stdDeviation="60"/>
    </filter>
    <filter id="thumbCardShadow" x="836" y="126" width="654" height="656" filterUnits="userSpaceOnUse" color-interpolation-filters="sRGB">
      <feOffset dy="18"/>
      <feGaussianBlur stdDeviation="24"/>
      <feColorMatrix type="matrix" values="0 0 0 0 0.0117647 0 0 0 0 0.0627451 0 0 0 0 0.101961 0 0 0 0.48 0"/>
      <feBlend in2="SourceGraphic" result="shape"/>
    </filter>
    <filter id="thumbLogoGlow" x="-80%" y="-80%" width="260%" height="260%">
      <feDropShadow dx="0" dy="0" stdDeviation="7" flood-color="#65F7FF" flood-opacity="0.58"/>
      <feDropShadow dx="0" dy="0" stdDeviation="16" flood-color="#1AB8D5" flood-opacity="0.34"/>
    </filter>
  </defs>

  <rect width="1600" height="900" rx="40" fill="url(#thumbBg)"/>
  <g filter="url(#thumbBlur)">
    <ellipse cx="286" cy="184" rx="260" ry="168" fill="url(#thumbGlowA)"/>
    <ellipse cx="1272" cy="720" rx="242" ry="158" fill="url(#thumbGlowB)"/>
  </g>

  <g opacity="0.16">
    <path d="M84 158H662" stroke="#72DBFF"/>
    <path d="M84 214H662" stroke="#72DBFF"/>
    <path d="M84 270H662" stroke="#72DBFF"/>
    <path d="M84 326H662" stroke="#72DBFF"/>
    <path d="M84 382H662" stroke="#72DBFF"/>
    <path d="M84 438H662" stroke="#72DBFF"/>
    <path d="M84 494H662" stroke="#72DBFF"/>
    <path d="M84 550H662" stroke="#72DBFF"/>
    <path d="M84 606H662" stroke="#72DBFF"/>
    <path d="M84 662H662" stroke="#72DBFF"/>
  </g>

  <g transform="translate(84 86)">
    <g filter="url(#thumbLogoGlow)">
      <circle cx="72" cy="86" r="34" fill="#5DF4FF" opacity="0.14"/>
      <g fill="none" stroke="url(#thumbLoopGlow)" stroke-linecap="round" stroke-width="10.5" opacity="0.92">
        <ellipse cx="72" cy="86" rx="42" ry="17" transform="rotate(0 72 86)"/>
        <ellipse cx="72" cy="86" rx="42" ry="17" transform="rotate(60 72 86)"/>
        <ellipse cx="72" cy="86" rx="42" ry="17" transform="rotate(120 72 86)"/>
        <ellipse cx="72" cy="86" rx="48" ry="20" transform="rotate(30 72 86)" opacity="0.82"/>
        <ellipse cx="72" cy="86" rx="48" ry="20" transform="rotate(90 72 86)" opacity="0.82"/>
        <ellipse cx="72" cy="86" rx="48" ry="20" transform="rotate(150 72 86)" opacity="0.82"/>
      </g>
      <g fill="#8DFFFF" opacity="0.82">
        <circle cx="113" cy="86" r="4.4"/>
        <circle cx="92.5" cy="121.5" r="4.2"/>
        <circle cx="51.5" cy="121.5" r="4.2"/>
        <circle cx="31" cy="86" r="4.4"/>
        <circle cx="51.5" cy="50.5" r="4.2"/>
        <circle cx="92.5" cy="50.5" r="4.2"/>
      </g>
      <circle cx="72" cy="86" r="19" fill="url(#thumbCoreGlow)"/>
      <circle cx="72" cy="86" r="10.5" fill="#DFFBFF" opacity="0.9"/>
      <circle cx="72" cy="86" r="5.2" fill="#8EF8FF"/>
    </g>

    <text x="168" y="110" fill="url(#thumbTextAccent)" font-family="Bahnschrift, 'Segoe UI', Arial, sans-serif" font-size="78" font-weight="600" letter-spacing="4">LumenStack AI</text>
  </g>

  <text x="84" y="256" fill="#EAF7FF" font-family="Segoe UI, Arial, sans-serif" font-size="80" font-weight="800">Cinematic Repo Intelligence</text>
  <text x="84" y="320" fill="#ABC3D8" font-family="Segoe UI, Arial, sans-serif" font-size="32" font-weight="500">Architecture analysis, compare mode, platform radar, and codebase chat.</text>

  <g>
    <rect x="84" y="426" width="202" height="58" rx="29" fill="#0F2235" stroke="#25536F"/>
    <text x="126" y="463" fill="#F4FAFF" font-family="Segoe UI, Arial, sans-serif" font-size="25" font-weight="700">Repo intake</text>

    <rect x="304" y="426" width="224" height="58" rx="29" fill="#0F2235" stroke="#25536F"/>
    <text x="347" y="463" fill="#F4FAFF" font-family="Segoe UI, Arial, sans-serif" font-size="25" font-weight="700">Mermaid maps</text>

    <rect x="546" y="426" width="190" height="58" rx="29" fill="#0F2235" stroke="#25536F"/>
    <text x="592" y="463" fill="#F4FAFF" font-family="Segoe UI, Arial, sans-serif" font-size="25" font-weight="700">Compare mode</text>
  </g>

  <g>
    <rect x="84" y="514" width="194" height="58" rx="29" fill="#0F2235" stroke="#25536F"/>
    <text x="131" y="551" fill="#F4FAFF" font-family="Segoe UI, Arial, sans-serif" font-size="25" font-weight="700">Codebase chat</text>

    <rect x="296" y="514" width="156" height="58" rx="29" fill="#0F2235" stroke="#25536F"/>
    <text x="342" y="551" fill="#F4FAFF" font-family="Segoe UI, Arial, sans-serif" font-size="25" font-weight="700">Exports</text>

    <rect x="470" y="514" width="246" height="58" rx="29" fill="#0F2235" stroke="#25536F"/>
    <text x="520" y="551" fill="#F4FAFF" font-family="Segoe UI, Arial, sans-serif" font-size="25" font-weight="700">Platform signals</text>
  </g>

  <text x="84" y="792" fill="#8FB2C8" font-family="Segoe UI, Arial, sans-serif" font-size="24" font-weight="600">github.com/agarwalujala3-lang/LumenStack-AI</text>
  <text x="84" y="836" fill="#BBD5E5" font-family="Segoe UI, Arial, sans-serif" font-size="22" font-weight="500">Built with Node.js, Express, JavaScript, OpenAI, and Mermaid</text>

  <g filter="url(#thumbCardShadow)">
    <rect x="860" y="150" width="586" height="572" rx="34" fill="url(#thumbCard)" stroke="#244357"/>
    <rect x="900" y="190" width="508" height="66" rx="18" fill="#0C2132" stroke="#234861"/>
    <circle cx="936" cy="223" r="9" fill="#56E7FF"/>
    <text x="962" y="234" fill="#DFF5FF" font-family="Consolas, monospace" font-size="25" font-weight="700">Architecture signal pass</text>

    <rect x="904" y="296" width="160" height="88" rx="20" fill="#11263A" stroke="#29536F"/>
    <text x="940" y="334" fill="#91E9FF" font-family="Segoe UI, Arial, sans-serif" font-size="18" font-weight="700">INPUT</text>
    <text x="934" y="364" fill="#F4FAFF" font-family="Segoe UI, Arial, sans-serif" font-size="28" font-weight="700">Repository</text>

    <rect x="1170" y="296" width="206" height="88" rx="20" fill="#11263A" stroke="#29536F"/>
    <text x="1205" y="334" fill="#91E9FF" font-family="Segoe UI, Arial, sans-serif" font-size="18" font-weight="700">PROCESS</text>
    <text x="1198" y="364" fill="#F4FAFF" font-family="Segoe UI, Arial, sans-serif" font-size="28" font-weight="700">System graph</text>

    <rect x="1036" y="452" width="206" height="104" rx="22" fill="#10283B" stroke="#2A5672"/>
    <text x="1087" y="494" fill="#91E9FF" font-family="Segoe UI, Arial, sans-serif" font-size="18" font-weight="700">OUTPUT</text>
    <text x="1073" y="530" fill="#F4FAFF" font-family="Segoe UI, Arial, sans-serif" font-size="30" font-weight="700">AI Brief</text>

    <path d="M1066 340H1160" stroke="url(#thumbAccent)" stroke-width="7" stroke-linecap="round"/>
    <path d="M1270 384V446" stroke="url(#thumbAccent)" stroke-width="7" stroke-linecap="round"/>
    <path d="M1178 504H1234" stroke="url(#thumbAccent)" stroke-width="7" stroke-linecap="round"/>
    <circle cx="1160" cy="340" r="10" fill="#56E7FF"/>
    <circle cx="1270" cy="450" r="10" fill="#7AB8FF"/>
    <circle cx="1240" cy="504" r="10" fill="#56E7FF"/>

    <rect x="906" y="598" width="498" height="84" rx="22" fill="#0F1F2C" stroke="#24465A"/>
    <text x="940" y="634" fill="#91E9FF" font-family="Segoe UI, Arial, sans-serif" font-size="18" font-weight="700">FEATURES</text>
    <text x="940" y="664" fill="#EAF6FF" font-family="Segoe UI, Arial, sans-serif" font-size="23" font-weight="600">Repo intake • Compare mode • Chat • Reports</text>
  </g>
</svg>
