<svg width="1600" height="900" viewBox="0 0 1600 900" fill="none" xmlns="http://www.w3.org/2000/svg">
  <defs>
    <linearGradient id="bg" x1="120" y1="40" x2="1480" y2="860" gradientUnits="userSpaceOnUse">
      <stop stop-color="#07111B"/>
      <stop offset="0.5" stop-color="#091A2A"/>
      <stop offset="1" stop-color="#0E2236"/>
    </linearGradient>
    <radialGradient id="glowA" cx="0" cy="0" r="1" gradientUnits="userSpaceOnUse" gradientTransform="translate(260 170) rotate(28) scale(520 300)">
      <stop stop-color="#72EEFF" stop-opacity="0.22"/>
      <stop offset="1" stop-color="#72EEFF" stop-opacity="0"/>
    </radialGradient>
    <radialGradient id="glowB" cx="0" cy="0" r="1" gradientUnits="userSpaceOnUse" gradientTransform="translate(1280 720) rotate(143) scale(360 220)">
      <stop stop-color="#7D8FFF" stop-opacity="0.16"/>
      <stop offset="1" stop-color="#7D8FFF" stop-opacity="0"/>
    </radialGradient>
    <linearGradient id="chipStroke" x1="0" y1="0" x2="1" y2="1">
      <stop stop-color="#3B7FA0"/>
      <stop offset="1" stop-color="#29516B"/>
    </linearGradient>
  </defs>

  <rect width="1600" height="900" rx="42" fill="url(#bg)"/>
  <ellipse cx="260" cy="170" rx="300" ry="190" fill="url(#glowA)"/>
  <ellipse cx="1280" cy="720" rx="260" ry="170" fill="url(#glowB)"/>

  <g opacity="0.12">
    <path d="M84 132H1500" stroke="#74EFFF"/>
    <path d="M84 190H1500" stroke="#74EFFF"/>
    <path d="M84 248H1500" stroke="#74EFFF"/>
    <path d="M84 306H1500" stroke="#74EFFF"/>
    <path d="M84 364H1500" stroke="#74EFFF"/>
    <path d="M84 422H1500" stroke="#74EFFF"/>
    <path d="M84 480H1500" stroke="#74EFFF"/>
    <path d="M84 538H1500" stroke="#74EFFF"/>
    <path d="M84 596H1500" stroke="#74EFFF"/>
    <path d="M84 654H1500" stroke="#74EFFF"/>
    <path d="M84 712H1500" stroke="#74EFFF"/>
  </g>

  <g transform="translate(92 90)">
    <image href="brand-lockup.svg" width="700" height="168"/>
  </g>

  <text x="96" y="320" fill="#F1FCFF" font-family="Segoe UI, Arial, sans-serif" font-size="84" font-weight="800">Repo Intelligence</text>
  <text x="96" y="408" fill="#F1FCFF" font-family="Segoe UI, Arial, sans-serif" font-size="84" font-weight="800">Workspace</text>
  <text x="96" y="478" fill="#AFC6D7" font-family="Segoe UI, Arial, sans-serif" font-size="32" font-weight="500">Architecture analysis, compare mode, Mermaid maps, platform signals, and codebase chat.</text>

  <g>
    <rect x="96" y="546" width="226" height="58" rx="29" fill="#102233" stroke="url(#chipStroke)"/>
    <text x="140" y="583" fill="#F5FBFF" font-family="Segoe UI, Arial, sans-serif" font-size="25" font-weight="700">Repo intake</text>

    <rect x="340" y="546" width="236" height="58" rx="29" fill="#102233" stroke="url(#chipStroke)"/>
    <text x="386" y="583" fill="#F5FBFF" font-family="Segoe UI, Arial, sans-serif" font-size="25" font-weight="700">Compare mode</text>

    <rect x="594" y="546" width="182" height="58" rx="29" fill="#102233" stroke="url(#chipStroke)"/>
    <text x="646" y="583" fill="#F5FBFF" font-family="Segoe UI, Arial, sans-serif" font-size="25" font-weight="700">AI brief</text>

    <rect x="96" y="624" width="214" height="58" rx="29" fill="#102233" stroke="url(#chipStroke)"/>
    <text x="132" y="661" fill="#F5FBFF" font-family="Segoe UI, Arial, sans-serif" font-size="25" font-weight="700">Mermaid maps</text>

    <rect x="328" y="624" width="176" height="58" rx="29" fill="#102233" stroke="url(#chipStroke)"/>
    <text x="372" y="661" fill="#F5FBFF" font-family="Segoe UI, Arial, sans-serif" font-size="25" font-weight="700">Chat layer</text>

    <rect x="522" y="624" width="226" height="58" rx="29" fill="#102233" stroke="url(#chipStroke)"/>
    <text x="564" y="661" fill="#F5FBFF" font-family="Segoe UI, Arial, sans-serif" font-size="25" font-weight="700">Platform radar</text>
  </g>

  <text x="96" y="792" fill="#92B5C8" font-family="Segoe UI, Arial, sans-serif" font-size="24" font-weight="600">github.com/agarwalujala3-lang/LumenStack-AI</text>
  <text x="96" y="836" fill="#BED7E6" font-family="Segoe UI, Arial, sans-serif" font-size="22" font-weight="500">Built with Node.js, Express, JavaScript, OpenAI, and Mermaid</text>
</svg>
